<svg version="1.1" viewBox="0 0 1200 630" fill="none" stroke="none" stroke-linecap="square" stroke-miterlimit="10" xmlns="http://www.w3.org/2000/svg">
  <!-- Centered salt wordmark from source SVG, scaled and repositioned for 1200x630 OG -->
  <g transform="translate(312, 27) scale(1.0)">
    <!-- Ice-blue accent layer (offset) -->
    <path fill="#cfe2f3" d="m236.5603 184.38217q0 -8.1875 -3.921875 -13.640625q-3.921875 -5.46875 -10.75 -8.875q-6.828125 -3.421875 -15.53125 -5.640625q-8.703125 -2.21875 -17.921875 -4.265625q-11.265625 -2.734375 -22.1875 -6.140625q-10.921875 -3.421875 -19.796875 -9.21875q-8.875 -5.8125 -14.171875 -15.1875q-5.28125 -9.390625 -5.28125 -23.390625q0 -15.703125 7.84375 -27.46875q7.859375 -11.781254 22.875 -18.265629q15.015625 -6.484375 36.1875 -6.484375q16.71875 0 29.171875 2.046875q12.46875 2.046875 20.828125 4.78125q8.359375 2.71875 12.453125 5.109375l0 43.01563l-30.03125 0l0 -35.5q3.421875 0 5.96875 1.03125q2.5625 1.015625 4.09375 2.890625q1.546875 1.875 2.390625 4.953125q0.859375 3.078125 0.515625 6.828125q-4.09375 -4.78125 -10.921875 -8.1875q-6.828125 -3.421875 -15.53125 -4.953125q-8.703125 -1.546875 -18.9375 -1.546875q-20.140625 0 -29.53125 7.515625q-9.375 7.515625 -9.375 20.484375q0 8.53125 3.921875 14.0q3.921875 5.453125 10.75 8.875q6.828125 3.40625 15.875 5.96875q9.046875 2.5625 18.9375 4.609375q10.921875 2.375 21.84375 5.96875q10.921875 3.578125 19.625 9.390625q8.703125 5.796875 13.984375 15.015625q5.296875 9.21875 5.296875 23.203125q0 16.046875 -8.1875 28.515625q-8.1875 12.453125 -24.234375 19.453125q-16.046875 6.984375 -39.59375 6.984375q-17.0625 0 -30.546875 -2.21875q-13.484375 -2.21875 -23.890625 -6.140625q-10.40625 -3.921875 -17.921875 -8.359375l0 -44.71875l30.71875 0l0 47.109375q-5.453125 -2.734375 -8.359375 -5.453125q-2.90625 -2.734375 -3.9375 -5.46875q-1.015625 -2.734375 -1.015625 -5.796875q0 -3.078125 0.6875 -6.15625q5.453125 5.125 13.46875 8.875q8.03125 3.75 18.265625 5.96875q10.25 2.21875 22.53125 2.21875q14.34375 0 23.890625 -3.578125q9.5625 -3.578125 14.5 -10.578125q4.953125 -7.0 4.953125 -17.578125zm181.25403 -63.484375l0 18.078125q-20.828125 2.734375 -35.84375 6.15625q-15.015625 3.40625 -24.921875 7.5q-9.890625 4.09375 -15.703125 9.21875q-5.796875 5.125 -8.1875 11.609375q-2.390625 6.484375 -2.390625 13.984375q0 9.5625 3.921875 16.046875q3.9375 6.484375 11.09375 9.734375q7.171875 3.234375 16.734375 3.234375q10.921875 0 20.140625 -5.109375q9.21875 -5.125 17.75 -15.359375q8.53125 -10.25 16.71875 -25.609375l0.34375 20.140625q-6.828125 14.0 -15.875 24.234375q-9.046875 10.234375 -20.484375 15.875q-11.421875 5.625 -25.765625 5.625q-16.375 0 -29.015625 -5.625q-12.625 -5.640625 -19.796875 -16.5625q-7.15625 -10.921875 -7.15625 -26.28125q0 -14.328125 6.484375 -24.90625q6.484375 -10.59375 20.640625 -18.4375q14.171875 -7.84375 36.6875 -13.640625q22.53125 -5.8125 54.625 -9.90625zm-0.6875 111.609375l-4.09375 -39.59375l-1.703125 -2.046875l0 -89.09375q0 -12.96875 -3.421875 -20.8125q-3.40625 -7.859375 -11.4375 -11.265625q-8.015625 -3.421875 -21.671875 -3.421875q-20.46875 0 -33.4375 5.8125q-12.96875 5.796875 -19.46875 12.28125q0 -2.71875 1.359375 -5.625q1.375 -2.90625 3.765625 -5.46875q2.390625 -2.5625 5.625 -4.265625q3.25 -1.703125 7.34375 -2.390625l0 39.59375l-30.03125 0l0 -41.640625q4.78125 -3.7500038 13.828125 -8.015629q9.046875 -4.265625 22.34375 -7.5q13.3125 -3.25 30.046875 -3.25q13.65625 0 25.59375 2.734375q11.953125 2.71875 20.828125 8.875q8.875 6.140625 13.984375 16.046879q5.125 9.890625 5.125 24.21875l0 103.078125q0 4.78125 3.40625 7.515625q3.421875 2.734375 9.5625 3.9375q6.140625 1.1875 15.015625 2.203125l1.71875 0.34375l0 17.75l-54.28125 0z" fill-rule="nonzero"/>
    <path fill="#cfe2f3" d="m214.89603 260.49277l0 224.9375q0 10.59375 7.84375 14.0q7.859375 3.40625 21.171875 3.40625l1.015625 0l0 16.390656l-90.109375 0l0 -16.390656l1.375 0q13.3125 0 20.984375 -3.40625q7.6875 -3.40625 7.6875 -14.0l0 -191.14062q0 -5.125 -2.90625 -7.671875q-2.90625 -2.5625 -8.71875 -4.265625q-5.796875 -1.71875 -15.0 -3.421875l-3.421875 -0.6875l0 -17.75l60.078125 0z" fill-rule="nonzero"/>
    <path fill="#cfe2f3" d="m302.95776 356.41464l0 -18.78125l3.75 0q11.609375 0 19.453125 -1.53125q7.859375 -1.53125 11.78125 -6.3125q3.921875 -4.78125 3.921875 -14.328125l22.1875 20.46875l65.1875 0l0 20.484375l-126.28125 0zm66.890625 107.171875q0 14.34375 4.09375 22.53125q4.109375 8.1875 11.953125 11.609375q7.859375 3.40625 18.78125 3.40625q8.875 0 16.375 -1.1875q7.515625 -1.203125 10.25 -1.875l0 20.46878q-3.421875 1.03125 -8.546875 2.046875q-5.109375 1.03125 -10.578125 1.703125q-5.453125 0.6875 -11.265625 0.6875q-16.03125 0 -30.03125 -4.765625q-14.0 -4.78125 -22.703125 -17.578156q-8.703125 -12.8125 -8.703125 -36.703125l0 -122.875l2.390625 -2.734375l0 -54.609375l27.984375 0l0 179.875z" fill-rule="nonzero"/>

    <!-- Black foreground layer -->
    <path fill="#000000" d="m232.868 180.68987q0 -8.1875 -3.921875 -13.640625q-3.921875 -5.46875 -10.75 -8.875q-6.828125 -3.421875 -15.53125 -5.640625q-8.703125 -2.21875 -17.921875 -4.265625q-11.265625 -2.734375 -22.1875 -6.140625q-10.921875 -3.421875 -19.796875 -9.21875q-8.875 -5.8125 -14.171875 -15.1875q-5.28125 -9.390625 -5.28125 -23.390625q0 -15.703125 7.84375 -27.46875q7.859375 -11.781254 22.875 -18.265629q15.015625 -6.484375 36.1875 -6.484375q16.71875 0 29.171875 2.046875q12.46875 2.046875 20.828125 4.78125q8.359375 2.71875 12.453125 5.109375l0 43.01563l-30.03125 0l0 -35.500004q3.421875 0 5.96875 1.03125q2.5625 1.015625 4.09375 2.8906288q1.546875 1.875 2.390625 4.953125q0.859375 3.078125 0.515625 6.828125q-4.09375 -4.78125 -10.921875 -8.1875q-6.828125 -3.421875 -15.53125 -4.953125q-8.703125 -1.5468788 -18.9375 -1.5468788q-20.140625 0 -29.53125 7.515629q-9.375 7.515625 -9.375 20.484375q0 8.53125 3.921875 14.0q3.921875 5.453125 10.75 8.875q6.828125 3.40625 15.875 5.96875q9.046875 2.5625 18.9375 4.609375q10.921875 2.375 21.84375 5.96875q10.921875 3.578125 19.625 9.390625q8.703125 5.796875 13.98439 15.015625q5.296875 9.21875 5.296875 23.203125q0 16.046875 -8.187515 28.515625q-8.1875 12.453125 -24.234375 19.453125q-16.046875 6.984375 -39.59375 6.984375q-17.0625 0 -30.546875 -2.21875q-13.484375 -2.21875 -23.890625 -6.140625q-10.40625 -3.921875 -17.921875 -8.359375l0 -44.71875l30.71875 0l0 47.109375q-5.453125 -2.734375 -8.359375 -5.453125q-2.90625 -2.734375 -3.9375 -5.46875q-1.015625 -2.734375 -1.015625 -5.796875q0 -3.078125 0.6875 -6.15625q5.453125 5.125 13.46875 8.875q8.03125 3.75 18.265625 5.96875q10.25 2.21875 22.53125 2.21875q14.34375 0 23.890625 -3.578125q9.5625 -3.578125 14.5 -10.578125q4.953125 -7.0 4.953125 -17.578125zm181.25404 -63.484375l0 18.078125q-20.828125 2.734375 -35.84375 6.15625q-15.015625 3.40625 -24.921875 7.5q-9.890625 4.09375 -15.703125 9.21875q-5.796875 5.125 -8.1875 11.609375q-2.390625 6.484375 -2.390625 13.984375q0 9.5625 3.921875 16.046875q3.9375 6.484375 11.09375 9.734375q7.171875 3.234375 16.734375 3.234375q10.921875 0 20.140625 -5.109375q9.21875 -5.125 17.75 -15.359375q8.53125 -10.25 16.71875 -25.609375l0.34375 20.140625q-6.828125 14.0 -15.875 24.234375q-9.046875 10.234375 -20.484375 15.875q-11.421875 5.625 -25.765625 5.625q-16.375 0 -29.015625 -5.625q-12.625 -5.640625 -19.796875 -16.5625q-7.15625 -10.921875 -7.15625 -26.28125q0 -14.328125 6.484375 -24.90625q6.484375 -10.59375 20.640625 -18.4375q14.171875 -7.84375 36.6875 -13.640625q22.53125 -5.8125 54.625 -9.90625zm-0.6875 111.609375l-4.09375 -39.59375l-1.703125 -2.046875l0 -89.09375q0 -12.96875 -3.421875 -20.8125q-3.40625 -7.859375 -11.4375 -11.265625q-8.015625 -3.4218788 -21.671875 -3.4218788q-20.46875 0 -33.4375 5.812504q-12.96875 5.796875 -19.46875 12.28125q0 -2.71875 1.359375 -5.625q1.375 -2.90625 3.765625 -5.46875q2.390625 -2.5625 5.625 -4.265625q3.25 -1.7031288 7.34375 -2.3906288l0 39.593754l-30.03125 0l0 -41.64063q4.78125 -3.75 13.828125 -8.015625q9.046875 -4.265625 22.34375 -7.5q13.3125 -3.25 30.046875 -3.25q13.65625 0 25.59375 2.734375q11.953125 2.71875 20.828125 8.875q8.875 6.140625 13.984375 16.046879q5.125 9.890625 5.125 24.21875l0 103.078125q0 4.78125 3.40625 7.515625q3.421875 2.734375 9.5625 3.9375q6.140625 1.1875 15.015625 2.203125l1.71875 0.34375l0 17.75l-54.28125 0z" fill-rule="nonzero"/>
    <path fill="#000000" d="m211.20372 256.80048l0 224.9375q0 10.59375 7.84375 14.0q7.859375 3.40625 21.171875 3.40625l1.015625 0l0 16.390625l-90.109375 0l0 -16.390625l1.375 0q13.3125 0 20.984375 -3.40625q7.6875 -3.40625 7.6875 -14.0l0 -191.14062q0 -5.125 -2.90625 -7.671875q-2.90625 -2.5625 -8.71875 -4.265625q-5.796875 -1.71875 -15.0 -3.421875l-3.421875 -0.6875l0 -17.75l60.078125 0z" fill-rule="nonzero"/>
    <path fill="#000000" d="m299.26547 352.72235l0 -18.78125l3.75 0q11.609375 0 19.453125 -1.53125q7.859375 -1.53125 11.78125 -6.3125q3.921875 -4.78125 3.921875 -14.328125l22.1875 20.46875l65.1875 0l0 20.484375l-126.28125 0zm66.890625 107.171875q0 14.34375 4.09375 22.53125q4.109375 8.1875 11.953125 11.609375q7.859375 3.40625 18.78125 3.40625q8.875 0 16.375 -1.1875q7.515625 -1.203125 10.25 -1.875l0 20.46875q-3.421875 1.03125 -8.546875 2.046875q-5.109375 1.03125 -10.578125 1.703125q-5.453125 0.6875 -11.265625 0.6875q-16.03125 0 -30.03125 -4.765625q-14.0 -4.78125 -22.703125 -17.578125q-8.703125 -12.8125 -8.703125 -36.703125l0 -122.875l2.390625 -2.734375l0 -54.609375l27.984375 0l0 179.875z" fill-rule="nonzero"/>
  </g>
</svg>
